<?xml version="1.0" standalone="no"?>
<!DOCTYPE svg PUBLIC "-//W3C//DTD SVG 20010904//EN"
 "http://www.w3.org/TR/2001/REC-SVG-20010904/DTD/svg10.dtd">
<svg version="1.0" xmlns="http://www.w3.org/2000/svg"
 width="300.000000pt" height="200.000000pt" viewBox="0 0 300.000000 200.000000"
 preserveAspectRatio="xMidYMid meet">
<metadata>
Created by potrace 1.10, written by Peter Selinger 2001-2011
</metadata>
<g transform="translate(0.000000,200.000000) scale(0.100000,-0.100000)"
fill="#000000" stroke="none">
<path d="M0 1155 c1 -493 5 -845 10 -845 5 0 11 4 14 9 3 5 16 7 29 4 20 -4
20 -3 4 7 -18 11 -18 13 3 27 17 12 19 17 9 24 -18 11 34 23 66 15 22 -6 36 3
91 58 57 57 72 66 131 81 54 14 67 14 77 3 6 -7 7 -9 2 -5 -5 4 -19 1 -31 -7
-12 -8 -34 -13 -49 -12 -28 4 -35 -8 -10 -18 22 -8 105 14 111 30 3 8 9 14 15
14 5 0 6 -5 2 -11 -4 -8 3 -9 25 -5 17 3 44 9 60 12 24 4 29 10 28 29 -3 35
15 33 41 -5 24 -36 31 -110 10 -110 -7 0 -40 -21 -73 -46 -64 -48 -62 -48
-165 -28 -18 3 -15 0 10 -11 l35 -15 -40 5 c-74 10 -95 16 -92 28 1 6 -9 13
-22 15 -15 2 -22 -1 -19 -9 2 -7 -4 -21 -14 -31 -10 -10 -18 -31 -18 -48 0
-23 -5 -30 -19 -30 -52 0 -70 -33 -26 -50 14 -5 52 -7 84 -4 62 7 114 -8 79
-21 -23 -9 -23 -25 0 -26 12 0 10 -3 -7 -10 -16 -6 -28 -6 -34 0 -5 5 -16 7
-25 4 -11 -5 -13 -3 -7 8 7 12 6 12 -7 1 -9 -7 -28 -11 -43 -8 -14 3 -36 1
-48 -4 -12 -4 -53 -15 -91 -24 -39 -9 -75 -24 -82 -33 -7 -10 -14 -39 -14 -65
l0 -48 1500 0 1500 0 0 1000 0 1000 -1500 0 -1500 0 0 -845z m1053 -245 c20
-6 37 -16 38 -23 7 -106 -21 -254 -57 -297 -37 -43 -59 -46 -101 -14 -34 26
-35 28 -29 78 3 28 9 79 12 112 l7 62 -29 6 c-16 3 -94 10 -173 16 -153 11
-191 17 -191 30 0 15 23 24 90 37 76 15 374 10 433 -7z m-551 -76 c16 -3 26
-10 23 -14 -3 -5 -22 -4 -42 2 -20 5 -52 8 -70 5 -18 -3 -33 -4 -33 -2 0 8 65
23 80 19 8 -1 27 -6 42 -10z m-42 -54 c11 -7 7 -10 -17 -10 -22 0 -36 -6 -43
-19 -26 -50 6 -97 61 -89 29 5 30 4 14 -9 -28 -20 -48 -16 -79 16 -24 25 -27
35 -22 64 8 45 52 69 86 47z m97 -92 c-3 -8 -6 -5 -6 6 -1 11 2 17 5 13 3 -3
4 -12 1 -19z m4 -55 c8 -10 9 -14 2 -10 -6 4 -27 -2 -45 -13 -39 -23 -96 -26
-124 -6 -17 13 -16 14 17 7 37 -8 100 6 122 28 14 14 12 14 28 -6z m643 -45
c20 -21 17 -22 -21 -6 -15 6 -34 10 -42 9 -7 -1 -10 2 -7 8 10 15 50 8 70 -11z
m-127 -4 c-3 -3 -12 -4 -19 -1 -8 3 -5 6 6 6 11 1 17 -2 13 -5z m186 -1 c-7
-2 -19 -2 -25 0 -7 3 -2 5 12 5 14 0 19 -2 13 -5z m401 -5 c-3 -4 7 -8 21 -8
17 0 25 -5 22 -12 -4 -13 -17 -14 -75 -2 -21 4 -53 0 -87 -11 -30 -9 -64 -15
-77 -12 -20 4 -19 4 5 6 16 0 26 5 22 11 -4 6 -10 8 -15 5 -5 -3 -11 -1 -14 4
-10 16 26 22 48 7 18 -11 25 -12 40 -1 11 9 31 11 53 8 22 -4 34 -2 30 3 -3 5
3 10 13 10 10 0 16 -4 14 -8z m-496 -7 c20 -12 -12 -23 -45 -15 -18 5 -21 9
-11 15 17 11 39 11 56 0z m176 -20 c7 -11 -22 -23 -35 -15 -5 3 -9 9 -9 15 0
12 37 12 44 0z m96 -1 c0 -5 -6 -7 -14 -4 -8 3 -26 -2 -40 -11 -22 -14 -26
-15 -26 -3 0 8 2 17 5 20 9 9 75 8 75 -2z m169 -23 c0 -9 -2 -8 -6 1 -2 6 -10
9 -15 6 -7 -4 -8 -2 -4 5 9 13 26 5 25 -12z m147 6 c-2 -9 -8 -19 -14 -21 -9
-3 -9 -9 -2 -23 13 -23 -2 -26 -20 -4 -7 9 -21 13 -30 10 -9 -3 -23 1 -30 10
-7 8 -16 13 -20 10 -5 -3 -11 -1 -14 4 -11 17 13 22 36 7 20 -12 39 -14 83 -7
6 1 1 8 -9 16 -19 15 -19 15 1 15 14 0 20 -6 19 -17z m-666 -9 c0 -2 -7 -4
-15 -4 -8 0 -15 4 -15 10 0 5 7 7 15 4 8 -4 15 -8 15 -10z m78 5 c-2 -6 -8
-10 -13 -10 -5 0 -11 4 -13 10 -2 6 4 11 13 11 9 0 15 -5 13 -11z m382 -9 c0
-5 -12 -10 -26 -10 -14 0 -23 4 -19 10 3 6 15 10 26 10 10 0 19 -4 19 -10z
m281 -5 c-1 -15 -24 -12 -29 3 -3 9 2 13 12 10 10 -1 17 -7 17 -13z m-414 -2
c-4 -3 -10 -3 -14 0 -3 4 0 7 7 7 7 0 10 -3 7 -7z m518 -3 c3 -5 4 -10 1 -10
-2 0 -13 -3 -23 -6 -15 -5 -16 -4 -3 6 12 9 10 10 -13 5 -19 -4 -26 -2 -22 5
8 13 52 13 60 0z m22 -7 c-4 -3 -7 0 -7 7 0 7 3 10 7 7 3 -4 3 -10 0 -14z
m-750 1 c-3 -3 -12 -4 -19 -1 -8 3 -5 6 6 6 11 1 17 -2 13 -5z m406 -1 c-7 -2
-13 -11 -13 -19 0 -8 -4 -14 -10 -14 -5 0 -10 6 -10 14 0 8 -6 17 -12 19 -7 3
3 5 22 5 19 0 29 -2 23 -5z m394 -10 c-4 -3 -7 0 -7 7 0 7 3 10 7 7 3 -4 3
-10 0 -14z m78 7 c3 -6 -1 -7 -9 -4 -18 7 -21 14 -7 14 6 0 13 -4 16 -10z m35
-5 c0 -8 -4 -15 -10 -15 -5 0 -10 7 -10 15 0 8 5 15 10 15 6 0 10 -7 10 -15z
m-860 -11 c0 -11 -5 -14 -16 -10 -9 3 -18 6 -20 6 -3 0 -2 5 1 10 10 16 35 12
35 -6z m163 9 c-7 -2 -19 -2 -25 0 -7 3 -2 5 12 5 14 0 19 -2 13 -5z m67 -2
c0 -17 -18 -21 -24 -6 -3 9 0 15 9 15 8 0 15 -4 15 -9z m69 -17 c3 -16 1 -17
-13 -5 -19 16 -21 34 -3 29 6 -3 14 -13 16 -24z m241 22 c0 -3 -4 -8 -10 -11
-5 -3 -10 -1 -10 4 0 6 5 11 10 11 6 0 10 -2 10 -4z m66 -27 c9 -15 -33 -10
-45 5 -9 11 -6 12 14 8 14 -2 28 -8 31 -13z m354 11 c0 -5 -5 -10 -11 -10 -5
0 -7 5 -4 10 3 6 8 10 11 10 2 0 4 -4 4 -10z m-867 -38 c-4 -9 -9 -8 -18 5 -7
10 -11 21 -9 25 8 12 32 -16 27 -30z m51 29 c3 -5 26 -14 51 -20 29 -7 43 -16
39 -22 -4 -6 -1 -15 6 -19 18 -11 3 -30 -18 -24 -9 3 -23 8 -31 10 -11 3 -11
7 -1 19 13 15 5 20 -28 16 -18 -3 -42 18 -42 35 0 16 16 19 24 5z m546 -7 c0
-17 -22 -14 -28 4 -2 7 3 12 12 12 9 0 16 -7 16 -16z m91 3 c-6 -8 -8 -17 -4
-20 3 -4 -1 -7 -10 -7 -9 0 -17 5 -17 12 0 9 -3 9 -12 0 -8 -8 -8 -15 2 -27
14 -16 6 -18 -25 -5 -11 5 -14 9 -7 9 9 1 11 8 7 20 -6 20 7 26 59 30 14 1 16
-2 7 -12z m143 -2 c3 -9 0 -15 -9 -15 -9 0 -12 6 -9 15 4 8 7 15 9 15 2 0 5
-7 9 -15z m66 11 c0 -3 -4 -8 -10 -11 -5 -3 -10 -1 -10 4 0 6 5 11 10 11 6 0
10 -2 10 -4z m-1266 -15 c3 -5 -5 -12 -19 -15 -14 -4 -24 -12 -22 -19 1 -7 -8
-11 -23 -10 -75 8 -86 25 -27 42 42 12 84 13 91 2z m221 -1 c17 -7 15 -9 -12
-9 -17 -1 -35 4 -38 9 -7 12 22 12 50 0z m495 6 c0 -3 -5 -8 -12 -12 -7 -4 -8
-3 -4 4 7 12 16 16 16 8z m430 -6 c0 -5 -4 -10 -9 -10 -6 0 -13 5 -16 10 -3 6
1 10 9 10 9 0 16 -4 16 -10z m-485 -11 c4 -6 5 -13 2 -16 -8 -7 -47 7 -47 18
0 13 37 11 45 -2z m175 7 c0 -3 -4 -8 -10 -11 -5 -3 -10 -1 -10 4 0 6 5 11 10
11 6 0 10 -2 10 -4z m-530 -11 c0 -2 -6 -8 -13 -14 -10 -8 -14 -7 -14 2 0 8 6
14 14 14 7 0 13 -1 13 -2z m299 -12 c3 -2 -2 -11 -11 -20 -15 -15 -18 -15 -33
1 -9 9 -21 14 -26 11 -5 -4 -9 1 -9 10 0 13 7 15 38 9 20 -4 39 -8 41 -11z
m266 8 c3 -5 1 -12 -4 -15 -5 -3 -11 1 -15 9 -6 16 9 21 19 6z m65 -1 c24 -8
24 -8 -7 -9 -17 -1 -35 4 -38 9 -7 11 9 11 45 0z m-725 -10 c8 -13 -25 -13
-45 0 -12 8 -9 10 12 10 15 0 30 -4 33 -10z m562 3 c-4 -3 -10 -3 -14 0 -3 4
0 7 7 7 7 0 10 -3 7 -7z m-520 -10 c-4 -3 -10 -3 -14 0 -3 4 0 7 7 7 7 0 10
-3 7 -7z m86 0 c-7 -2 -19 -2 -25 0 -7 3 -2 5 12 5 14 0 19 -2 13 -5z m364
-11 c-1 -21 -36 -24 -55 -6 -9 10 -7 13 10 17 43 8 47 7 45 -11z m383 -8 c0
-8 -4 -14 -9 -14 -12 0 -32 26 -25 33 10 9 34 -4 34 -19z m40 16 c0 -5 -8 -10
-17 -10 -15 0 -16 2 -3 10 19 12 20 12 20 0z m237 4 c-3 -3 -12 -4 -19 -1 -8
3 -5 6 6 6 11 1 17 -2 13 -5z m-1483 -19 c-7 -17 -20 -20 -28 -6 -4 5 0 12 6
14 23 9 28 7 22 -8z m281 6 c3 -5 -9 -17 -26 -25 -39 -19 -36 -19 -42 -2 -4
11 -1 13 10 9 12 -5 14 -3 8 7 -5 8 -4 11 1 7 6 -3 16 -2 24 4 18 11 18 11 25
0z m682 2 c-4 -3 -10 -3 -14 0 -3 4 0 7 7 7 7 0 10 -3 7 -7z m433 3 c0 -3 -4
-8 -10 -11 -5 -3 -10 -1 -10 4 0 6 5 11 10 11 6 0 10 -2 10 -4z m27 -3 c-4 -3
-10 -3 -14 0 -3 4 0 7 7 7 7 0 10 -3 7 -7z m-1507 -18 c-7 -8 -23 -15 -36 -15
-12 0 -30 -10 -38 -22 -9 -12 -17 -20 -18 -17 -33 52 -35 47 37 62 11 3 31 5
44 6 20 1 21 -1 11 -14z m493 -6 c-3 -11 7 -26 26 -40 23 -17 28 -26 20 -35
-19 -23 0 -35 26 -17 15 12 19 20 11 26 -6 4 0 5 14 2 14 -3 40 -7 58 -9 42
-4 65 -26 65 -61 0 -36 -10 -42 -30 -18 -10 11 -32 27 -50 36 l-31 17 -7 -32
c-6 -23 -3 -35 8 -43 13 -9 14 -14 5 -23 -17 -17 -43 -15 -59 4 -10 13 -10 17
2 25 11 7 11 9 -3 9 -10 0 -18 7 -18 16 0 10 -6 14 -15 10 -9 -3 -15 0 -15 9
0 19 -26 20 -33 1 -3 -7 -22 -16 -41 -20 -20 -4 -36 -11 -36 -16 0 -5 -17 -14
-37 -21 -21 -6 -44 -16 -51 -22 -19 -15 -24 -3 -11 26 6 14 34 36 64 52 29 14
63 37 76 51 l22 24 -34 -1 c-19 0 -28 -3 -21 -6 19 -8 14 -23 -9 -23 -13 0
-18 4 -13 11 5 9 -1 10 -22 5 -52 -12 -361 -18 -343 -7 9 6 72 13 140 16 134
5 288 34 302 57 13 20 45 18 40 -3z m164 -8 c37 -35 30 -59 -11 -40 -15 7 -25
18 -22 26 3 7 1 13 -5 13 -6 0 -8 4 -5 9 4 5 0 12 -6 14 -9 4 -7 6 3 6 9 1 30
-12 46 -28z m173 25 c0 -11 -19 -15 -25 -6 -3 5 1 10 9 10 9 0 16 -2 16 -4z
m107 -3 c-4 -3 -10 -3 -14 0 -3 4 0 7 7 7 7 0 10 -3 7 -7z m73 -8 c0 -9 9 -15
23 -15 28 0 54 -16 43 -27 -5 -4 -11 -2 -14 6 -3 8 -7 10 -11 3 -4 -7 -18 -4
-39 10 -34 21 -42 38 -17 38 8 0 15 -7 15 -15z m97 9 c-3 -3 -12 -4 -19 -1 -8
3 -5 6 6 6 11 1 17 -2 13 -5z m88 -4 c8 -13 -15 -13 -35 0 -12 8 -11 10 7 10
12 0 25 -4 28 -10z m187 4 c10 -10 -39 -54 -60 -54 -33 0 -35 17 -2 29 17 5
30 15 30 20 0 12 23 15 32 5z m-807 -24 c3 -6 -1 -7 -9 -4 -18 7 -21 14 -7 14
6 0 13 -4 16 -10z m388 -8 c-2 -7 3 -12 11 -12 8 0 18 -5 22 -12 4 -7 3 -8 -4
-4 -7 4 -12 3 -12 -2 0 -5 9 -12 20 -15 11 -3 20 -9 19 -14 -5 -22 13 -40 38
-35 18 3 24 1 19 -7 -10 -15 -37 -13 -59 4 -11 7 -25 11 -33 8 -8 -3 -14 0
-14 6 0 6 6 11 13 11 6 1 -1 8 -16 16 -19 10 -27 21 -23 31 4 9 1 22 -6 30
-10 13 -9 15 7 11 11 -2 19 -10 18 -16z m467 8 c0 -5 -5 -10 -11 -10 -5 0 -7
5 -4 10 3 6 8 10 11 10 2 0 4 -4 4 -10z m-231 -9 c8 -5 9 -11 3 -15 -14 -8
-43 4 -36 15 7 11 15 11 33 0z m48 -13 c-3 -8 -6 -5 -6 6 -1 11 2 17 5 13 3
-3 4 -12 1 -19z m-460 5 c-4 -3 -10 -3 -14 0 -3 4 0 7 7 7 7 0 10 -3 7 -7z
m133 -3 c-19 -13 -30 -13 -30 0 0 6 10 10 23 10 18 0 19 -2 7 -10z m197 3 c-4
-3 -10 -3 -14 0 -3 4 0 7 7 7 7 0 10 -3 7 -7z m-1420 -19 c-3 -3 -12 -4 -19
-1 -8 3 -5 6 6 6 11 1 17 -2 13 -5z m1100 0 c-3 -3 -12 -4 -19 -1 -8 3 -5 6 6
6 11 1 17 -2 13 -5z m663 -2 c0 -15 -11 -21 -27 -15 -12 5 -12 7 -1 14 17 11
28 11 28 1z m-740 -16 c0 -8 10 -17 23 -19 19 -4 18 -4 -5 -6 -16 0 -28 1 -28
3 0 2 -3 11 -6 20 -3 9 -1 16 5 16 6 0 11 -6 11 -14z m666 -2 c17 -14 17 -15
1 -10 -10 3 -28 6 -40 6 -18 0 -19 2 -7 10 20 13 23 13 46 -6z m406 2 c34 -1
35 -2 21 -18 -9 -10 -18 -16 -22 -14 -3 2 -15 -1 -26 -5 -18 -9 -18 -9 3 -5
12 2 22 -1 22 -6 0 -7 -17 -9 -45 -6 -30 4 -42 2 -38 -5 4 -6 0 -8 -10 -4 -9
3 -18 3 -21 -1 -3 -4 -22 -9 -43 -10 -43 -3 -173 -40 -173 -50 0 -4 -21 -7
-48 -7 -26 1 -51 -2 -57 -6 -5 -3 -25 -11 -44 -18 -27 -9 -36 -8 -42 1 -6 10
-15 10 -43 0 -26 -10 -41 -10 -55 -2 -11 5 -24 10 -28 9 -28 -5 -74 3 -85 15
-8 7 -24 17 -36 20 -12 4 -22 12 -22 17 0 15 -20 10 -27 -7 -14 -36 -50 -64
-85 -64 -19 0 -40 -6 -47 -12 -11 -10 -14 -10 -18 0 -6 15 -43 16 -43 1 0 -5
-4 -8 -9 -4 -5 3 -16 -2 -25 -10 -9 -10 -17 -11 -21 -5 -4 6 -15 8 -26 5 -10
-4 -19 -2 -19 2 0 5 -28 8 -62 7 -40 -2 -57 1 -48 6 8 5 37 9 64 8 35 0 53 4
61 16 7 9 17 16 22 16 22 0 121 49 126 63 15 40 146 21 200 -29 28 -26 56 -32
58 -11 1 6 2 18 3 25 2 21 27 31 62 25 18 -3 41 -2 51 2 10 4 52 7 93 7 49 0
78 4 85 13 5 7 24 15 40 18 17 3 55 12 85 21 40 11 80 14 145 10 50 -4 107 -7
127 -8z m-852 -5 c0 -5 -12 -11 -27 -14 -26 -5 -26 -4 -8 9 22 16 35 18 35 5z
m200 3 c0 -14 -22 -44 -33 -44 -9 0 -8 3 1 9 7 4 12 12 11 17 -3 16 1 24 11
24 6 0 10 -3 10 -6z m160 -14 c0 -11 -5 -20 -11 -20 -5 0 -7 6 -3 13 6 10 4
10 -7 0 -19 -19 -28 -16 -22 7 3 11 14 20 24 20 12 0 19 -7 19 -20z m-480 0
c0 -5 -9 -10 -21 -10 -11 0 -17 5 -14 10 3 6 13 10 21 10 8 0 14 -4 14 -10z
m427 3 c-4 -3 -10 -3 -14 0 -3 4 0 7 7 7 7 0 10 -3 7 -7z m-37 -23 c0 -5 -7
-10 -15 -10 -8 0 -15 5 -15 10 0 6 7 10 15 10 8 0 15 -4 15 -10z m-373 -17
c-4 -3 -7 0 -7 7 0 7 3 10 7 7 3 -4 3 -10 0 -14z m883 -47 c0 -3 -5 -8 -12
-12 -7 -4 -8 -3 -4 4 7 12 16 16 16 8z m-1314 -74 c11 -6 36 -9 55 -6 l34 5
-27 -15 c-29 -15 -152 -17 -177 -2 -8 5 -16 4 -21 -4 -6 -9 -11 -7 -19 9 -11
20 -9 21 26 23 21 0 46 1 56 0 11 -1 17 5 17 21 l0 22 18 -21 c9 -12 26 -26
38 -32z m1202 18 c-7 -10 -16 -17 -20 -14 -4 3 -2 13 4 24 7 10 16 17 20 14 4
-3 2 -13 -4 -24z m-51 -7 c-4 -3 -10 -3 -14 0 -3 4 0 7 7 7 7 0 10 -3 7 -7z
m-1014 -20 c-7 -2 -19 -2 -25 0 -7 3 -2 5 12 5 14 0 19 -2 13 -5z m494 -30
c-4 -3 -7 0 -7 7 0 7 3 10 7 7 3 -4 3 -10 0 -14z m-803 -28 c-4 -8 -8 -15 -10
-15 -2 0 -4 7 -4 15 0 8 4 15 10 15 5 0 7 -7 4 -15z"/>
<path d="M1290 300 c0 -7 3 -10 7 -7 3 4 3 10 0 14 -4 3 -7 0 -7 -7z"/>
<path d="M1943 217 c-10 -17 17 -33 47 -29 44 6 37 37 -9 37 -18 0 -35 -4 -38
-8z"/>
<path d="M96 381 c-3 -5 1 -11 9 -15 9 -3 15 0 15 9 0 16 -16 20 -24 6z"/>
<path d="M123 333 c4 -6 1 -14 -5 -16 -7 -3 0 -6 16 -6 16 -1 27 0 25 2 -2 1
-13 9 -23 17 -11 8 -17 10 -13 3z"/>
<path d="M106 284 c-9 -24 -2 -26 12 -4 7 11 8 20 3 20 -5 0 -12 -7 -15 -16z"/>
<path d="M50 280 c0 -7 3 -10 7 -7 3 4 3 10 0 14 -4 3 -7 0 -7 -7z"/>
<path d="M0 166 c0 -12 8 -16 30 -14 17 1 30 6 30 11 0 5 -7 6 -16 3 -9 -4
-23 -1 -30 5 -11 9 -14 8 -14 -5z"/>
</g>
</svg>
